<?xml version="1.0" encoding="UTF-8" standalone="no"?>
<svg
   xmlns:dc="http://purl.org/dc/elements/1.1/"
   xmlns:cc="http://creativecommons.org/ns#"
   xmlns:rdf="http://www.w3.org/1999/02/22-rdf-syntax-ns#"
   xmlns:svg="http://www.w3.org/2000/svg"
   xmlns="http://www.w3.org/2000/svg"
   xmlns:sodipodi="http://sodipodi.sourceforge.net/DTD/sodipodi-0.dtd"
   xmlns:inkscape="http://www.inkscape.org/namespaces/inkscape"
   id="board"
   width="296.27mm"
   height="188.32mm"
   viewBox="0 0 296.27 188.32"
   style="transform:scale(0.8)"
   version="1.1"
   sodipodi:docname="board.svg"
   inkscape:version="0.92.4 (5da689c313, 2019-01-14)">
  <metadata
     id="metadata1063">
    <rdf:RDF>
      <cc:Work
         rdf:about="">
        <dc:format>image/svg+xml</dc:format>
        <dc:type
           rdf:resource="http://purl.org/dc/dcmitype/StillImage" />
      </cc:Work>
    </rdf:RDF>
  </metadata>
  <defs
     id="defs1061" />
  <sodipodi:namedview
     pagecolor="#ffffff"
     bordercolor="#666666"
     borderopacity="1"
     objecttolerance="10"
     gridtolerance="10"
     guidetolerance="10"
     inkscape:pageopacity="0"
     inkscape:pageshadow="2"
     inkscape:window-width="1366"
     inkscape:window-height="715"
     id="namedview1059"
     showgrid="false"
     inkscape:zoom="0.76992173"
     inkscape:cx="559.88029"
     inkscape:cy="355.88033"
     inkscape:window-x="-8"
     inkscape:window-y="-8"
     inkscape:window-maximized="1"
     inkscape:current-layer="board" />
  <rect
     style="stroke-linecap:round;fill:none"
     height="177.32001"
     width="285.26999"
     y="5.5000014"
     x="5.5003004"
     class="background"
     id="board-border" />
  <rect
     height="167.50999"
     width="234.74001"
     y="10.520005"
     x="12.619101"
     id="inset"
     style="fill:none" />
  <path
     inkscape:connector-curvature="0"
     id="path942"
     d="m 20.966,109.52 9.1622,68.511 h -17.946 z"
     class="black" />
  <path
     inkscape:connector-curvature="0"
     id="path944"
     d="m 56.859,109.52 9.1622,68.511 h -17.946 z"
     class="black" />
  <path
     inkscape:connector-curvature="0"
     id="path946"
     d="m 92.751,109.52 9.1622,68.511 h -17.946 z"
     class="black" />
  <path
     inkscape:connector-curvature="0"
     id="path948"
     d="M 39.35,79.03 48.5122,10.519 H 30.5662 Z"
     class="black" />
  <path
     inkscape:connector-curvature="0"
     id="path950"
     d="M 75.242,79.03 84.4042,10.519 H 66.4582 Z"
     class="black" />
  <path
     inkscape:connector-curvature="0"
     id="path952"
     d="m 111.136,79.03 9.1622,-68.511 h -17.946 z"
     class="black" />
  <path
     inkscape:connector-curvature="0"
     id="path954"
     d="m 148.466,109.52 9.1622,68.511 h -17.946 z"
     class="black" />
  <path
     inkscape:connector-curvature="0"
     id="path956"
     d="m 184.356,109.52 9.1622,68.511 h -17.946 z"
     class="black" />
  <path
     inkscape:connector-curvature="0"
     id="path958"
     d="m 220.246,109.52 9.1622,68.511 h -17.946 z"
     class="black" />
  <path
     inkscape:connector-curvature="0"
     id="path960"
     d="m 166.846,79.03 9.1622,-68.511 h -17.946 z"
     class="black" />
  <path
     inkscape:connector-curvature="0"
     id="path962"
     d="m 202.736,79.03 9.1622,-68.511 h -17.946 z"
     class="black" />
  <path
     inkscape:connector-curvature="0"
     id="path964"
     d="m 238.636,79.03 9.1622,-68.511 h -17.946 z"
     class="black" />
  <path
     inkscape:connector-curvature="0"
     id="path966"
     d="m 38.912,109.52 9.1622,68.511 h -17.946 z"
     class="white" />
  <path
     inkscape:connector-curvature="0"
     id="path968"
     d="m 74.805,109.52 9.1622,68.511 h -17.946 z"
     class="white" />
  <path
     inkscape:connector-curvature="0"
     id="path970"
     d="m 110.696,109.52 9.1622,68.511 h -17.946 z"
     class="white" />
  <path
     inkscape:connector-curvature="0"
     id="path972"
     d="M 57.296,79.03 66.4582,10.519 H 48.5122 Z"
     class="white" />
  <path
     inkscape:connector-curvature="0"
     id="path974"
     d="m 93.189,79.03 9.1622,-68.511 h -17.946 z"
     class="white" />
  <path
     inkscape:connector-curvature="0"
     id="path976"
     d="m 166.406,109.52 9.1622,68.511 h -17.946 z"
     class="white" />
  <path
     inkscape:connector-curvature="0"
     id="path978"
     d="m 202.306,109.52 9.1622,68.511 h -17.946 z"
     class="white" />
  <path
     inkscape:connector-curvature="0"
     id="path980"
     d="m 238.196,109.52 9.1622,68.511 h -17.946 z"
     class="white" />
  <path
     inkscape:connector-curvature="0"
     id="path982"
     d="m 184.796,79.03 9.1622,-68.511 h -17.946 z"
     class="white" />
  <path
     inkscape:connector-curvature="0"
     id="path984"
     d="m 220.686,79.03 9.1622,-68.511 h -17.946 z"
     class="white" />
  <path
     inkscape:connector-curvature="0"
     id="path986"
     d="M 21.403,79.03 30.5652,10.519 H 12.6192 Z"
     class="white" />
  <path
     inkscape:connector-curvature="0"
     id="path988"
     d="m 148.906,79.03 9.1622,-68.511 h -17.946 z"
     class="white" />
  <circle
     id="circle990"
     r="7.0897999"
     cy="68.259995"
     cx="130.636" />
  <rect
     id="rect992"
     ry="0.69243997"
     rx="0.69243997"
     height="3.4233"
     width="14.037"
     y="146.26999"
     x="261.19598"
     class="black" />
  <rect
     id="rect994"
     ry="0.69243997"
     rx="0.69243997"
     height="3.4233"
     width="14.037"
     y="142.85001"
     x="261.19598"
     class="black" />
  <rect
     id="rect996"
     ry="0.69243997"
     rx="0.69243997"
     height="3.4233"
     width="14.037"
     y="139.42999"
     x="261.19598"
     class="black" />
  <rect
     id="rect998"
     ry="0.69243997"
     rx="0.69243997"
     height="3.4233"
     width="14.037"
     y="136"
     x="261.19598"
     class="black" />
  <rect
     id="rect1000"
     ry="0.69243997"
     rx="0.69243997"
     height="3.4233"
     width="14.037"
     y="132.57999"
     x="261.19598"
     class="black" />
  <rect
     id="rect1002"
     ry="0.69243997"
     rx="0.69243997"
     height="3.4233"
     width="14.037"
     y="129.16"
     x="261.19598"
     class="black" />
  <rect
     id="rect1004"
     ry="0.69243997"
     rx="0.69243997"
     height="3.4233"
     width="14.037"
     y="125.73001"
     x="261.19598"
     class="black" />
  <rect
     id="rect1006"
     ry="0.69243997"
     rx="0.69243997"
     height="3.4233"
     width="14.037"
     y="122.31"
     x="261.19598"
     class="black" />
  <rect
     id="rect1008"
     ry="0.69243997"
     rx="0.69243997"
     height="3.4233"
     width="14.037"
     y="118.89"
     x="261.19598"
     class="black" />
  <rect
     id="rect1010"
     ry="0.69243997"
     rx="0.69243997"
     height="3.4233"
     width="14.037"
     y="115.45999"
     x="261.19598"
     class="black" />
  <rect
     id="rect1012"
     ry="0.69243997"
     rx="0.69243997"
     height="3.4233"
     width="14.037"
     y="112.03999"
     x="261.19598"
     class="black" />
  <rect
     id="rect1014"
     ry="0.69243997"
     rx="0.69243997"
     height="3.4233"
     width="14.037"
     y="108.62"
     x="261.19598"
     class="black" />
  <rect
     id="rect1016"
     ry="0.69243997"
     rx="0.69243997"
     height="3.4233"
     width="14.037"
     y="105.19"
     x="261.19598"
     class="black" />
  <rect
     id="rect1018"
     ry="0.69243997"
     rx="0.69243997"
     height="3.4233"
     width="14.037"
     y="101.77"
     x="261.19598"
     class="black" />
  <rect
     id="rect1020"
     ry="0.69243997"
     rx="0.69243997"
     height="3.4233"
     width="14.037"
     y="149.70001"
     x="261.19598"
     class="black" />
  <rect
     id="rect1022"
     ry="0.69243997"
     rx="0.69243997"
     height="3.4233"
     width="14.037"
     y="35.970001"
     x="261.63599"
     class="white" />
  <rect
     id="rect1024"
     ry="0.69243997"
     rx="0.69243997"
     height="3.4233"
     width="14.037"
     y="83.899994"
     x="261.63599"
     class="white" />
  <rect
     id="rect1026"
     ry="0.69243997"
     rx="0.69243997"
     height="3.4233"
     width="14.037"
     y="80.470001"
     x="261.63599"
     class="white" />
  <rect
     id="rect1028"
     ry="0.69243997"
     rx="0.69243997"
     height="3.4233"
     width="14.037"
     y="77.050003"
     x="261.63599"
     class="white" />
  <rect
     id="rect1030"
     ry="0.69243997"
     rx="0.69243997"
     height="3.4233"
     width="14.037"
     y="73.630005"
     x="261.63599"
     class="white" />
  <rect
     id="rect1032"
     ry="0.69243997"
     rx="0.69243997"
     height="3.4233"
     width="14.037"
     y="70.199997"
     x="261.63599"
     class="white" />
  <rect
     id="rect1034"
     ry="0.69243997"
     rx="0.69243997"
     height="3.4233"
     width="14.037"
     y="66.779999"
     x="261.63599"
     class="white" />
  <rect
     id="rect1036"
     ry="0.69243997"
     rx="0.69243997"
     height="3.4233"
     width="14.037"
     y="63.360001"
     x="261.63599"
     class="white" />
  <rect
     id="rect1038"
     ry="0.69243997"
     rx="0.69243997"
     height="3.4233"
     width="14.037"
     y="59.929993"
     x="261.63599"
     class="white" />
  <rect
     id="rect1040"
     ry="0.69243997"
     rx="0.69243997"
     height="3.4233"
     width="14.037"
     y="56.509995"
     x="261.63599"
     class="white" />
  <rect
     id="rect1042"
     ry="0.69243997"
     rx="0.69243997"
     height="3.4233"
     width="14.037"
     y="53.089996"
     x="261.63599"
     class="white" />
  <rect
     id="rect1044"
     ry="0.69243997"
     rx="0.69243997"
     height="3.4233"
     width="14.037"
     y="49.660004"
     x="261.63599"
     class="white" />
  <rect
     id="rect1046"
     ry="0.69243997"
     rx="0.69243997"
     height="3.4233"
     width="14.037"
     y="46.240005"
     x="261.63599"
     class="white" />
  <rect
     id="rect1048"
     ry="0.69243997"
     rx="0.69243997"
     height="3.4233"
     width="14.037"
     y="42.819992"
     x="261.63599"
     class="white" />
  <rect
     id="rect1050"
     ry="0.69243997"
     rx="0.69243997"
     height="3.4233"
     width="14.037"
     y="39.389999"
     x="261.63599"
     class="white" />
  <path
     inkscape:connector-curvature="0"
     id="path1052"
     d="m 119.426,178.03 0.43737,-167.51 h 20.257 v 167.67 z"
     class="background" />
  <circle
     id="circle1054"
     r="7.0897999"
     cy="51.580002"
     cx="129.976" />
</svg>
